<?xml version="1.0" standalone="no"?>
<!DOCTYPE svg PUBLIC "-//W3C//DTD SVG 20010904//EN"
 "http://www.w3.org/TR/2001/REC-SVG-20010904/DTD/svg10.dtd">
<svg version="1.0" xmlns="http://www.w3.org/2000/svg"
 width="512.000000pt" height="512.000000pt" viewBox="0 0 512.000000 512.000000"
 preserveAspectRatio="xMidYMid meet">
<metadata>
Created by potrace 1.11, written by Peter Selinger 2001-2013
</metadata>
<g transform="translate(0.000000,512.000000) scale(0.100000,-0.100000)"
fill="#000000" stroke="none">
<path d="M1715 4876 c-12 -8 -62 -124 -125 -287 l-106 -274 -372 -3 -372 -2 0
168 c0 151 -2 171 -18 185 -16 15 -54 17 -325 17 -282 0 -308 -1 -325 -18 -16
-16 -18 -38 -17 -227 1 -175 4 -215 18 -242 20 -38 71 -79 112 -89 16 -4 315
-7 665 -7 l635 0 -2 -1456 c-1 -801 -2 -1461 -2 -1468 -1 -8 -45 -11 -153 -12
-211 -1 -198 16 -198 -253 l0 -208 -202 0 c-185 0 -205 -2 -228 -20 l-25 -19
-1 -210 -1 -211 121 0 c67 0 561 -2 1098 -3 l978 -2 0 206 c0 277 23 253 -246
259 l-208 5 -1 209 c-1 265 14 246 -201 246 l-153 0 0 865 c0 545 3 865 9 865
6 0 10 -4 10 -9 0 -19 172 -1 242 24 24 9 48 17 54 18 7 2 38 19 71 39 108 67
219 207 252 317 33 113 39 230 17 303 -24 76 -85 144 -160 179 -61 29 -61 29
-267 29 -150 0 -208 -3 -217 -12 -10 -10 -12 20 -10 152 l3 165 1363 1 1362 1
0 -830 c0 -733 -2 -832 -15 -847 -15 -16 -21 -98 -16 -216 2 -45 29 -74 73
-77 38 -3 52 -11 54 -28 1 -5 2 -13 3 -17 0 -5 21 -32 46 -61 51 -60 56 -87
20 -125 -47 -50 -120 -11 -117 63 1 31 -2 41 -13 41 -19 0 -34 -37 -28 -70 18
-105 153 -131 207 -39 30 51 19 96 -39 159 -33 35 -50 69 -37 71 4 1 21 2 37
3 83 6 94 28 92 177 -2 77 -6 111 -17 124 -13 16 -15 127 -15 846 0 620 3 829
11 829 33 0 26 89 -12 143 -24 33 -40 45 -80 56 -46 13 -56 23 -144 134 -52
66 -100 125 -105 131 -6 6 -24 28 -39 49 -55 72 18 67 -1050 67 -577 0 -974
-4 -989 -9 -14 -6 -85 -86 -163 -185 l-139 -175 -127 0 -126 -1 -57 148 c-32
81 -80 206 -108 277 -28 72 -58 135 -66 142 -22 17 -93 16 -116 -1z m1065
-261 c0 -2 -13 -18 -28 -34 l-28 -31 -32 33 -32 33 60 1 c33 1 60 0 60 -2z
m160 -92 c0 -5 -20 -29 -45 -53 l-45 -44 -36 34 c-60 58 -60 64 -9 113 l46 43
44 -42 c25 -23 45 -46 45 -51z m74 66 c-33 -33 -54 -31 -78 5 -14 23 -14 23
46 24 l61 1 -29 -30z m143 -114 c-26 -25 -49 -45 -52 -45 -2 0 -25 21 -51 46
l-46 47 48 47 49 48 49 -49 50 -48 -47 -46z m133 135 c0 -9 -48 -50 -58 -50
-5 0 -21 13 -35 30 l-26 29 59 -1 c33 -1 60 -5 60 -8z m232 -25 c-30 -36 -38
-35 -69 5 l-23 28 60 0 60 0 -28 -33z m272 23 c-16 -25 -39 -48 -48 -48 -11 0
-56 40 -56 50 0 3 25 7 55 8 41 1 54 -2 49 -10z m147 -114 c-14 -16 -37 -38
-50 -48 -23 -18 -23 -18 -69 28 l-46 46 48 49 49 50 47 -47 47 -47 -26 -31z
m92 94 c-32 -32 -48 -30 -75 6 l-18 24 61 0 61 -1 -29 -29z m141 -17 l48 -49
-42 -46 c-23 -25 -46 -46 -50 -46 -4 0 -29 21 -54 47 l-47 47 48 48 c26 26 48
47 48 48 1 0 22 -22 49 -49z m136 40 c0 -3 -12 -17 -26 -32 l-26 -27 -29 25
c-16 14 -26 30 -23 35 5 8 104 7 104 -1z m148 -66 l23 -21 -47 -47 c-26 -26
-49 -47 -53 -47 -3 0 -26 21 -51 45 l-44 45 49 50 48 49 26 -26 c14 -14 36
-36 49 -48z m110 66 c5 -2 -50 -51 -58 -51 -3 0 -18 13 -33 28 l-27 29 57 -2
c32 -2 59 -3 61 -4z m-1154 -46 l43 -44 -49 -48 -48 -47 -47 47 -47 47 44 45
c24 25 48 45 53 45 4 0 28 -20 51 -45z m255 1 l43 -44 -43 -46 c-24 -25 -46
-46 -50 -46 -3 0 -27 20 -53 44 l-46 45 43 45 c23 25 47 46 52 46 6 0 30 -20
54 -44z m-1010 -10 l33 -34 -45 -46 c-25 -25 -48 -46 -52 -46 -4 0 -19 12 -35
26 l-28 27 42 53 c22 30 43 54 47 54 3 0 20 -15 38 -34z m1984 -30 c43 -52 44
-57 17 -81 -20 -18 -21 -18 -69 29 l-48 47 21 25 c12 13 26 24 31 24 6 0 27
-20 48 -44z m-1871 -84 c37 -37 45 -51 36 -60 -23 -23 -198 -11 -178 12 61 68
86 95 90 95 3 1 26 -21 52 -47z m266 -10 c51 -49 39 -62 -56 -62 -106 0 -113
10 -54 71 51 52 46 53 110 -9z m275 -49 c-23 -17 -160 -17 -166 0 -3 6 16 33
41 60 l46 47 48 -47 c44 -43 47 -49 31 -60z m234 49 c18 -19 33 -38 33 -42 0
-14 -35 -21 -101 -19 -93 2 -99 12 -42 69 53 53 50 53 110 -8z m282 -49 c-15
-18 -166 -16 -172 2 -3 7 15 33 41 59 l46 47 48 -48 c36 -36 45 -50 37 -60z
m217 62 c24 -25 44 -49 44 -54 0 -15 -28 -21 -99 -21 -93 0 -100 11 -43 71 26
27 49 49 51 49 2 0 23 -20 47 -45z m295 -64 c-23 -14 -164 -13 -173 1 -5 9 9
30 40 61 l47 47 50 -50 c39 -39 47 -53 36 -59z m219 62 c64 -61 56 -73 -52
-73 -98 0 -104 11 -46 73 24 26 44 46 46 47 2 0 25 -21 52 -47z m-2010 -63
c-19 -12 -103 -13 -98 -1 2 4 14 22 28 39 l25 31 30 -30 c25 -25 28 -31 15
-39z m2190 23 l22 -28 -32 -3 c-17 -2 -38 2 -46 9 -13 10 -12 14 2 30 23 25
29 24 54 -8z m237 -1131 l2 -823 -71 3 -72 3 0 548 c-1 358 2 547 9 547 7 0 7
3 0 8 -6 4 -10 107 -10 273 l0 267 70 -2 70 -1 2 -823z m-3297 739 c22 -1 19
-7 -40 -66 -35 -35 -66 -62 -69 -60 -7 8 -7 99 0 115 5 11 20 15 46 14 21 -1
49 -3 63 -3z m286 0 c7 -1 11 -27 11 -71 0 -83 -2 -82 -90 9 l-58 60 33 3 c28
3 53 2 104 -1z m-109 -143 c46 -46 83 -86 83 -91 0 -4 -39 -46 -86 -93 l-86
-86 -91 90 -91 91 84 85 c47 47 89 85 95 86 5 0 47 -37 92 -82z m120 -328 l-1
-151 -75 75 -76 76 75 75 c41 41 75 75 76 75 0 0 1 -68 1 -150z m-277 1 c0 -9
-129 -145 -131 -138 -1 3 -1 240 0 260 1 13 19 0 66 -47 36 -36 65 -70 65 -75z
m160 -150 l88 -88 -87 -87 c-47 -47 -90 -86 -95 -86 -4 0 -46 39 -93 86 l-86
86 89 89 c49 49 90 89 92 89 2 0 43 -40 92 -89z m117 -326 c0 -80 -1 -145 -3
-145 -7 0 -144 139 -144 147 0 9 131 143 140 143 4 0 6 -65 7 -145z m-334 -67
c-48 -48 -69 -64 -73 -53 -4 11 -5 232 -1 255 1 2 33 -27 71 -65 l70 -69 -67
-68z m244 -226 c-33 -31 -63 -56 -68 -55 -5 2 -6 -3 -4 -10 2 -6 -9 -22 -24
-34 l-28 -22 -88 90 -89 89 89 90 90 90 91 -91 91 -91 -60 -56z m90 -181 l-1
-150 -73 72 c-40 39 -73 74 -73 78 0 6 140 149 146 149 1 0 2 -67 1 -149z
m-339 -68 c-40 -40 -73 -73 -73 -73 0 0 3 246 4 264 1 13 19 1 71 -50 l70 -69
-72 -72z m221 -78 c54 -55 80 -89 75 -97 -10 -17 -157 -168 -164 -168 -6 0
-146 135 -168 162 -12 15 -2 28 75 102 48 47 90 86 93 86 3 0 43 -38 89 -85z
m-216 -263 l67 -67 -69 -67 c-38 -38 -71 -68 -73 -68 -2 0 -3 63 -3 139 0 77
2 137 5 135 3 -2 35 -35 73 -72z m334 -66 c-1 -165 8 -159 -92 -60 l-62 62 71
71 c39 39 74 71 78 71 4 0 6 -65 5 -144z m-106 -160 c38 -39 69 -72 69 -75 0
-9 -164 -171 -172 -171 -4 0 -46 39 -93 87 l-86 87 88 88 c100 100 77 102 194
-16z m106 -311 c0 -165 8 -158 -81 -69 -78 77 -78 67 0 145 37 38 71 69 75 69
4 0 6 -65 6 -145z m-334 68 l66 -68 -67 -67 c-36 -37 -68 -65 -70 -63 -7 7 -8
265 -1 265 3 0 36 -30 72 -67z m281 -282 l19 -23 -89 -89 -88 -88 -90 89 -90
90 89 90 89 90 71 -68 c38 -37 78 -78 89 -91z m53 -191 l0 -80 -73 0 c-72 0
-100 11 -66 26 9 4 21 6 25 5 5 -1 6 3 2 9 -4 7 99 120 110 120 1 0 2 -36 2
-80z m-277 -66 c0 -8 -23 -12 -65 -13 -70 -1 -67 -4 -67 64 0 98 -5 96 67 25
36 -35 65 -70 65 -76z"/>
</g>
</svg>
